<svg xmlns="http://www.w3.org/2000/svg" viewBox="0 0 480.88 49.49"><defs><style>.cls-1{fill:#fff;}</style></defs><title>logo</title><g id="Ebene_2" data-name="Ebene 2"><g id="Ebene_1-2" data-name="Ebene 1"><path class="cls-1" d="M28.54,12.87c-1.45-2.67-5.44-5.2-10-5.2-5.92,0-8.77,2.74-8.77,6.2,0,4.07,4.35,5.2,9.43,5.87,8.83,1.2,17,3.74,17,14.87,0,10.4-8.34,14.87-17.77,14.87C9.79,49.49,3.14,46.55,0,38l6.65-3.8c1.87,5.14,6.77,7.4,11.91,7.4s9.73-1.93,9.73-7c0-4.4-4.17-6.2-9.79-6.87C9.85,26.61,1.87,24.08,1.87,13.61,1.87,4,10.46.07,18.26,0c6.59,0,13.42,2.07,16.63,9.27Z"/><path class="cls-1" d="M53.32,9.6H39.9v-8H74.72v8H61.3V48.29h-8Z"/><path class="cls-1" d="M117.1,48.29h-9.49L95.28,32.68H87.6V48.29h-8V1.53c6.71,0,13.42.07,20.13.07C109.72,1.67,115,9,115,17.07c0,6.4-2.66,12.87-10.7,14.67L117.1,47.69ZM87.6,9.8V24.74H99.75c5.08,0,7.26-3.73,7.26-7.47S104.77,9.8,99.75,9.8Z"/><path class="cls-1" d="M120.42,48.29V1.6h7.92V48.29Z"/><path class="cls-1" d="M158.81,48.49h-8.28L132.94,1.6h8.95L154.64,38,167.46,1.6h8.95Z"/><path class="cls-1" d="M211.35,39.48H189.22l-3.63,8.8h-8.65l19-46.69h8.71l19,46.69h-8.71ZM200.28,11.41l-7.86,19.88h15.72Z"/><path class="cls-1" d="M235.83,1.6V40.15h21.77v8.14H227.85V1.6Z"/><path class="cls-1" d="M309.88,6.8,292,34.15h-1.2L272.8,6.8V48.29h-3.6V1.6h4.27l17.87,27.21L309,1.6h4.4V48.29h-3.53Z"/><path class="cls-1" d="M330.55,23.14H357.9v3.27H330.55V44.82H360v3.47H327V1.6h32.21V5H330.55Z"/><path class="cls-1" d="M410.45,24.41c.27,11.87-7.34,23.88-23.68,23.88H371V1.6h15.81C402.58,1.6,410.18,12.94,410.45,24.41ZM374.57,5V44.82h12.21c13.87,0,20.28-10.41,20.08-20.41C406.65,14.67,400.25,5,386.77,5Z"/><path class="cls-1" d="M422.72,48.29V1.6h3.54V48.29Z"/><path class="cls-1" d="M477,48.29l-5.13-11.47H444l-5.07,11.47h-3.87L456,1.6h3.93l20.94,46.69Zm-6.54-14.81L457.93,5.07,445.39,33.48Z"/></g></g></svg>